# xmcd
#
# Track frame offsets: 
#        183
#        11133
#        24770
#        33628
#        45575
#        58538
#        70745
#        81183
#        95695
#        108170
#        120898
#        133415
#        143168
#        156183
#        168633
#        185640
#        197300
#        210200
#        222150
#        233133
#        249548
#        264340
#        279268
#        290395
#
# Disc length: 4058 seconds
#
# Revision: 0
# Processed by: cddbd v1.5.2PL0 Copyright (c) Steve Scherf et al.
# Submitted via: ExactAudioCopy v0.99pb5
#
DISCID=4c0fd818
DTITLE=Various Artist - Queens Of Country
DYEAR=1997
DGENRE=Country
TTITLE0=01 Billie Jo Spears - I'm So Lonely I Could Cry
TTITLE1=02 Billie Jo Spears - ever
TTITLE2=03 Billie Jo Spears - You're My Man
TTITLE3=04 Billie Jo Spears - Ease The Want In Me
TTITLE4=05 Billie Jo Spears - Dallas
TTITLE5=06 Billie Jo Spears - Look What They've Done To My Song
TTITLE6=07 Billie Jo Spears - It Makes No Difference Now
TTITLE7=08 Billie Jo Spears - I'll Never Be Free
TTITLE8=09 Billie Jo Spears - The Cheating Kind
TTITLE9=10 Billie Jo Spears - He's On The Run Again
TTITLE10=11 Billie Jo Spears - Sunshine
TTITLE11=12 Billie Jo Spears - Danny
TTITLE12=13 Lynn Anderson - Rose Garden
TTITLE13=14 Lynn Anderson - Stand By Your Man
TTITLE14=15 Lynn Anderson - Blue Bayou
TTITLE15=16 Lynn Anderson - Listen To A Country Song
TTITLE16=17 Lynn Anderson - Top Of The World
TTITLE17=18 Lynn Anderson - Rodeo Cowboy
TTITLE18=19 Lynn Anderson - Heaven's Just A Sin Away
TTITLE19=20 Lynn Anderson - The Devil Went Down To Georgia
TTITLE20=21 Lynn Anderson - Gone At Last
TTITLE21=22 Lynn Anderson - Faithless Love
TTITLE22=23 Lynn Anderson - Someday Soon
TTITLE23=24 Lynn Anderson - Two Dors Down
EXTD=
EXTT0=
EXTT1=
EXTT2=
EXTT3=
EXTT4=
EXTT5=
EXTT6=
EXTT7=
EXTT8=
EXTT9=
EXTT10=
EXTT11=
EXTT12=
EXTT13=
EXTT14=
EXTT15=
EXTT16=
EXTT17=
EXTT18=
EXTT19=
EXTT20=
EXTT21=
EXTT22=
EXTT23=
PLAYORDER=
